<svg xmlns="http://www.w3.org/2000/svg" viewBox="0 0 100 100">
  <g transform="rotate(60 50 50)">
    <circle cx="50" cy="50" r="26" fill="#0084FF" opacity="0.9"/>
    <circle cx="50" cy="50" r="16" fill="#424242"/>
    <g fill="#0084FF" opacity="0.9">
      <rect x="44" y="14" width="12" height="22" rx="3"/>
      <rect x="44" y="64" width="12" height="22" rx="3"/>
      <rect x="14" y="44" width="22" height="12" rx="3"/>
      <rect x="64" y="44" width="22" height="12" rx="3"/>
      <rect x="58" y="24" width="7" height="10" rx="2" transform="rotate(45,61.5,29)"/>
      <rect x="35" y="24" width="7" height="10" rx="2" transform="rotate(-45,38.5,29)"/>
      <rect x="58" y="66" width="7" height="10" rx="2" transform="rotate(-45,61.5,71)"/>
      <rect x="35" y="66" width="7" height="10" rx="2" transform="rotate(45,38.5,71)"/>
    </g>
    <circle cx="50" cy="50" r="5" fill="#BBDEFB" opacity="0.8"/>
  </g>
</svg>